<mxfile host="app.diagrams.net" modified="2020-11-30T18:53:50.865Z" agent="5.0 (Windows)" etag="SB7NfFeX1HrrHhG0fPf1" version="13.10.0" type="github">
  <diagram id="GkOozT2zZ-mFFen7vHGs" name="Page-1">
    <mxGraphModel dx="700" dy="763" grid="1" gridSize="10" guides="1" tooltips="1" connect="1" arrows="1" fold="1" page="1" pageScale="1" pageWidth="850" pageHeight="1100" math="0" shadow="0">
      <root>
        <mxCell id="0" />
        <mxCell id="1" parent="0" />
        <mxCell id="jfMF2BbcVNO6NxV1kAqg-1" value="Pi" style="swimlane;fontStyle=1;align=center;verticalAlign=top;childLayout=stackLayout;horizontal=1;startSize=26;horizontalStack=0;resizeParent=1;resizeParentMax=0;resizeLast=0;collapsible=1;marginBottom=0;" parent="1" vertex="1">
          <mxGeometry x="125" y="480" width="160" height="60" as="geometry" />
        </mxCell>
        <mxCell id="jfMF2BbcVNO6NxV1kAqg-3" value="" style="line;strokeWidth=1;fillColor=none;align=left;verticalAlign=middle;spacingTop=-1;spacingLeft=3;spacingRight=3;rotatable=0;labelPosition=right;points=[];portConstraint=eastwest;" parent="jfMF2BbcVNO6NxV1kAqg-1" vertex="1">
          <mxGeometry y="26" width="160" height="8" as="geometry" />
        </mxCell>
        <mxCell id="jfMF2BbcVNO6NxV1kAqg-4" value="+ sendStream()" style="text;strokeColor=none;fillColor=none;align=left;verticalAlign=top;spacingLeft=4;spacingRight=4;overflow=hidden;rotatable=0;points=[[0,0.5],[1,0.5]];portConstraint=eastwest;" parent="jfMF2BbcVNO6NxV1kAqg-1" vertex="1">
          <mxGeometry y="34" width="160" height="26" as="geometry" />
        </mxCell>
        <mxCell id="jfMF2BbcVNO6NxV1kAqg-5" value="DetecciÃ³n" style="swimlane;fontStyle=1;align=center;verticalAlign=top;childLayout=stackLayout;horizontal=1;startSize=26;horizontalStack=0;resizeParent=1;resizeParentMax=0;resizeLast=0;collapsible=1;marginBottom=0;" parent="1" vertex="1">
          <mxGeometry x="565" y="180" width="160" height="86" as="geometry" />
        </mxCell>
        <mxCell id="jfMF2BbcVNO6NxV1kAqg-6" value="- model: model" style="text;strokeColor=none;fillColor=none;align=left;verticalAlign=top;spacingLeft=4;spacingRight=4;overflow=hidden;rotatable=0;points=[[0,0.5],[1,0.5]];portConstraint=eastwest;" parent="jfMF2BbcVNO6NxV1kAqg-5" vertex="1">
          <mxGeometry y="26" width="160" height="26" as="geometry" />
        </mxCell>
        <mxCell id="jfMF2BbcVNO6NxV1kAqg-7" value="" style="line;strokeWidth=1;fillColor=none;align=left;verticalAlign=middle;spacingTop=-1;spacingLeft=3;spacingRight=3;rotatable=0;labelPosition=right;points=[];portConstraint=eastwest;" parent="jfMF2BbcVNO6NxV1kAqg-5" vertex="1">
          <mxGeometry y="52" width="160" height="8" as="geometry" />
        </mxCell>
        <mxCell id="jfMF2BbcVNO6NxV1kAqg-8" value="+ saveModel(model)" style="text;strokeColor=none;fillColor=none;align=left;verticalAlign=top;spacingLeft=4;spacingRight=4;overflow=hidden;rotatable=0;points=[[0,0.5],[1,0.5]];portConstraint=eastwest;" parent="jfMF2BbcVNO6NxV1kAqg-5" vertex="1">
          <mxGeometry y="60" width="160" height="26" as="geometry" />
        </mxCell>
        <mxCell id="jfMF2BbcVNO6NxV1kAqg-9" value="Backend Handler (Flask)" style="swimlane;fontStyle=1;align=center;verticalAlign=top;childLayout=stackLayout;horizontal=1;startSize=26;horizontalStack=0;resizeParent=1;resizeParentMax=0;resizeLast=0;collapsible=1;marginBottom=0;" parent="1" vertex="1">
          <mxGeometry x="305" y="180" width="180" height="86" as="geometry" />
        </mxCell>
        <mxCell id="jfMF2BbcVNO6NxV1kAqg-10" value="- hayFuego: Boolean" style="text;strokeColor=none;fillColor=none;align=left;verticalAlign=top;spacingLeft=4;spacingRight=4;overflow=hidden;rotatable=0;points=[[0,0.5],[1,0.5]];portConstraint=eastwest;" parent="jfMF2BbcVNO6NxV1kAqg-9" vertex="1">
          <mxGeometry y="26" width="180" height="26" as="geometry" />
        </mxCell>
        <mxCell id="jfMF2BbcVNO6NxV1kAqg-11" value="" style="line;strokeWidth=1;fillColor=none;align=left;verticalAlign=middle;spacingTop=-1;spacingLeft=3;spacingRight=3;rotatable=0;labelPosition=right;points=[];portConstraint=eastwest;" parent="jfMF2BbcVNO6NxV1kAqg-9" vertex="1">
          <mxGeometry y="52" width="180" height="8" as="geometry" />
        </mxCell>
        <mxCell id="jfMF2BbcVNO6NxV1kAqg-12" value="+ redirectStream(hayFuego)" style="text;strokeColor=none;fillColor=none;align=left;verticalAlign=top;spacingLeft=4;spacingRight=4;overflow=hidden;rotatable=0;points=[[0,0.5],[1,0.5]];portConstraint=eastwest;" parent="jfMF2BbcVNO6NxV1kAqg-9" vertex="1">
          <mxGeometry y="60" width="180" height="26" as="geometry" />
        </mxCell>
        <mxCell id="jfMF2BbcVNO6NxV1kAqg-13" value="Webapp Frontend" style="swimlane;fontStyle=1;align=center;verticalAlign=top;childLayout=stackLayout;horizontal=1;startSize=26;horizontalStack=0;resizeParent=1;resizeParentMax=0;resizeLast=0;collapsible=1;marginBottom=0;" parent="1" vertex="1">
          <mxGeometry x="515" y="370" width="160" height="110" as="geometry" />
        </mxCell>
        <mxCell id="jfMF2BbcVNO6NxV1kAqg-14" value="- hayFuego: Boolean" style="text;strokeColor=none;fillColor=none;align=left;verticalAlign=top;spacingLeft=4;spacingRight=4;overflow=hidden;rotatable=0;points=[[0,0.5],[1,0.5]];portConstraint=eastwest;" parent="jfMF2BbcVNO6NxV1kAqg-13" vertex="1">
          <mxGeometry y="26" width="160" height="26" as="geometry" />
        </mxCell>
        <mxCell id="jfMF2BbcVNO6NxV1kAqg-15" value="" style="line;strokeWidth=1;fillColor=none;align=left;verticalAlign=middle;spacingTop=-1;spacingLeft=3;spacingRight=3;rotatable=0;labelPosition=right;points=[];portConstraint=eastwest;" parent="jfMF2BbcVNO6NxV1kAqg-13" vertex="1">
          <mxGeometry y="52" width="160" height="8" as="geometry" />
        </mxCell>
        <mxCell id="jfMF2BbcVNO6NxV1kAqg-16" value="+ showStream()&#xa;+ showFire(hayFuego)&#xa;" style="text;strokeColor=none;fillColor=none;align=left;verticalAlign=top;spacingLeft=4;spacingRight=4;overflow=hidden;rotatable=0;points=[[0,0.5],[1,0.5]];portConstraint=eastwest;" parent="jfMF2BbcVNO6NxV1kAqg-13" vertex="1">
          <mxGeometry y="60" width="160" height="50" as="geometry" />
        </mxCell>
        <mxCell id="jfMF2BbcVNO6NxV1kAqg-24" value="Use" style="endArrow=open;endSize=12;dashed=1;html=1;entryX=0.5;entryY=0;entryDx=0;entryDy=0;exitX=0.488;exitY=1;exitDx=0;exitDy=0;exitPerimeter=0;" parent="1" source="tYyI16KYIyRRUZiokqDi-4" target="jfMF2BbcVNO6NxV1kAqg-1" edge="1">
          <mxGeometry width="160" relative="1" as="geometry">
            <mxPoint x="210" y="490" as="sourcePoint" />
            <mxPoint x="370" y="490" as="targetPoint" />
          </mxGeometry>
        </mxCell>
        <mxCell id="jfMF2BbcVNO6NxV1kAqg-25" value="Use" style="endArrow=open;endSize=12;dashed=1;html=1;entryX=0;entryY=0.5;entryDx=0;entryDy=0;exitX=1;exitY=0.5;exitDx=0;exitDy=0;" parent="1" source="jfMF2BbcVNO6NxV1kAqg-10" target="jfMF2BbcVNO6NxV1kAqg-6" edge="1">
          <mxGeometry width="160" relative="1" as="geometry">
            <mxPoint x="420" y="500" as="sourcePoint" />
            <mxPoint x="580" y="500" as="targetPoint" />
          </mxGeometry>
        </mxCell>
        <mxCell id="jfMF2BbcVNO6NxV1kAqg-26" value="dispatch" style="html=1;verticalAlign=bottom;endArrow=block;entryX=0.5;entryY=0;entryDx=0;entryDy=0;exitX=1.011;exitY=0.923;exitDx=0;exitDy=0;exitPerimeter=0;" parent="1" source="jfMF2BbcVNO6NxV1kAqg-12" target="jfMF2BbcVNO6NxV1kAqg-13" edge="1">
          <mxGeometry width="80" relative="1" as="geometry">
            <mxPoint x="300" y="530" as="sourcePoint" />
            <mxPoint x="380" y="530" as="targetPoint" />
          </mxGeometry>
        </mxCell>
        <mxCell id="tYyI16KYIyRRUZiokqDi-1" value="OpenCV" style="swimlane;fontStyle=1;align=center;verticalAlign=top;childLayout=stackLayout;horizontal=1;startSize=26;horizontalStack=0;resizeParent=1;resizeParentMax=0;resizeLast=0;collapsible=1;marginBottom=0;" parent="1" vertex="1">
          <mxGeometry x="130" y="330" width="160" height="90" as="geometry" />
        </mxCell>
        <mxCell id="tYyI16KYIyRRUZiokqDi-3" value="" style="line;strokeWidth=1;fillColor=none;align=left;verticalAlign=middle;spacingTop=-1;spacingLeft=3;spacingRight=3;rotatable=0;labelPosition=right;points=[];portConstraint=eastwest;" parent="tYyI16KYIyRRUZiokqDi-1" vertex="1">
          <mxGeometry y="26" width="160" height="8" as="geometry" />
        </mxCell>
        <mxCell id="tYyI16KYIyRRUZiokqDi-4" value="+ receiveStream()&#xa;+ sendStream()&#xa;+ sendFrames()&#xa;" style="text;strokeColor=none;fillColor=none;align=left;verticalAlign=top;spacingLeft=4;spacingRight=4;overflow=hidden;rotatable=0;points=[[0,0.5],[1,0.5]];portConstraint=eastwest;" parent="tYyI16KYIyRRUZiokqDi-1" vertex="1">
          <mxGeometry y="34" width="160" height="56" as="geometry" />
        </mxCell>
        <mxCell id="tYyI16KYIyRRUZiokqDi-5" value="dispatch" style="html=1;verticalAlign=bottom;endArrow=block;entryX=0;entryY=0.5;entryDx=0;entryDy=0;exitX=0.5;exitY=0;exitDx=0;exitDy=0;" parent="1" source="tYyI16KYIyRRUZiokqDi-1" target="jfMF2BbcVNO6NxV1kAqg-12" edge="1">
          <mxGeometry width="80" relative="1" as="geometry">
            <mxPoint x="330" y="289.99800000000005" as="sourcePoint" />
            <mxPoint x="438.02" y="396" as="targetPoint" />
          </mxGeometry>
        </mxCell>
      </root>
    </mxGraphModel>
  </diagram>
</mxfile>
